# xmcd
#
# Track frame offsets: 
#        150
#        25682
#        55279
#        85961
#        111494
#        138008
#        160990
#        189595
#        212705
#        235648
#
# Disc length: 3468 seconds
#
# Revision: 0
# Processed by: cddbd v1.5.2PL0 Copyright (c) Steve Scherf et al.
# Submitted via: ExactAudioCopy v1.0b3
#
DISCID=810d8a0a
DTITLE=Tam Doan, Truong Vu - The Best Of
DYEAR=2010
DGENRE=
TTITLE0=Truong Vu - Tinh toi noi buon
TTITLE1=Tam Doan - Chuyen tau hoang hon
TTITLE2=Truong Vu - Tuy ca
TTITLE3=Tam Doan - Tam anh khong hon
TTITLE4=Truong Vu - Tam su nguoi thuong binh
TTITLE5=Tam Doan - Nguoi da quen
TTITLE6=Truong Vu - Nu cuoi chua cay
TTITLE7=Tam Doan - Tieng coi trong suong dem
TTITLE8=Truong Vu - Chuyen nang hang xom
TTITLE9=Tam Doan - Em con be lam anh oi
EXTD=
EXTT0=
EXTT1=
EXTT2=
EXTT3=
EXTT4=
EXTT5=
EXTT6=
EXTT7=
EXTT8=
EXTT9=
PLAYORDER=
